<?xml version="1.0" encoding="UTF-8"?>
<svg id="Layer_1" data-name="Layer 1" xmlns="http://www.w3.org/2000/svg" viewBox="0 0 1448.57 1223.31">
  <defs>
    <style>
      .cls-1 {
        fill: #f5d3be;
      }

      .cls-1, .cls-2, .cls-3, .cls-4, .cls-5, .cls-6, .cls-7, .cls-8 {
        stroke-width: 0px;
      }

      .cls-2 {
        fill: #d1d160;
      }

      .cls-3 {
        fill: #5a403c;
      }

      .cls-4 {
        fill: #f07b5d;
      }

      .cls-5 {
        fill: #94898f;
      }

      .cls-6 {
        fill: #fdd700;
      }

      .cls-7 {
        fill: #c0b2ba;
      }

      .cls-8 {
        fill: #fff;
      }
    </style>
  </defs>
  <g>
    <path class="cls-3" d="M23.44,381.46S0,399.4,0,402.09s310.49,524.8,310.49,524.8l31.25-19.4L23.44,381.46Z"/>
    <path class="cls-1" d="M725.62,0c-171.29,42.52-342.59,190.73-342.59,190.73,0,0-182.63,14.66-368.5,178.66l335.8,552.17,321.84-225.45,342.59-179.8L725.62,0Z"/>
    <polygon class="cls-8" points="14.53 404.81 29.51 391.48 334.96 896.3 318.6 905.99 14.53 404.81"/>
    <polygon class="cls-3" points="730.1 7.99 752.43 0 1026.98 493.98 1007.41 503.19 730.1 7.99"/>
    <polygon class="cls-8" points="733.48 14.03 748.22 8.85 1014.76 487.99 1002.21 494.01 733.48 14.03"/>
    <path class="cls-8" d="M669.93,697.68c-89.84-172.51-184.31-342.54-283.32-509.97-2.28,1.91-3.57,3.02-3.57,3.02,0,0-3.84.32-10.77,1.31,99.85,168.75,195.09,340.16,285.62,514.07l12.04-8.44Z"/>
  </g>
  <g>
    <polygon class="cls-3" points="376.73 1170.45 749.7 1223.31 840.87 677.32 468.94 643.13 376.73 1170.45"/>
    <path class="cls-4" d="M442.66,595.35c-3.91,5.22-35.2,531.94-32.59,535.85,2.61,3.91,363.75,41.72,368.97,39.11,5.22-2.61,45.63-537.16,41.72-542.37-3.91-5.22-378.1-32.59-378.1-32.59Z"/>
    <path class="cls-3" d="M447.09,588.68c-4.17,0-7.02,3.35-7.29,7.29-.25,3.64-.7,7.21-1.38,10.8-.73,3.86,1.08,7.86,5.09,8.97,3.56.98,8.23-1.2,8.97-5.09.92-4.85,1.56-9.75,1.9-14.67.27-3.93-3.54-7.29-7.29-7.29Z"/>
    <path class="cls-3" d="M461.94,596.42c.19,4.57-.12,8.96-1.11,13.42-2.04,9.14,12.02,13.04,14.06,3.88,1.27-5.69,1.87-11.47,1.63-17.29-.39-9.35-14.97-9.4-14.58,0Z"/>
    <path class="cls-3" d="M493.78,590.01c-3.72,0-7.58,3.34-7.29,7.29.32,4.3.09,8.38-.93,12.57-2.2,9.12,11.85,13,14.06,3.88,1.3-5.39,1.86-10.91,1.45-16.45-.29-3.93-3.14-7.29-7.29-7.29Z"/>
    <path class="cls-3" d="M510.37,598.62c-.12,4.37-.52,8.66-1.34,12.96-.73,3.86,1.08,7.86,5.09,8.97,3.56.98,8.23-1.2,8.97-5.09,1.05-5.56,1.7-11.18,1.86-16.83.25-9.38-14.32-9.38-14.58,0Z"/>
    <path class="cls-3" d="M543.53,595.52c-3.41-.94-8.42,1.17-8.97,5.09-.59,4.25-1.17,8.49-1.76,12.74-.54,3.89.94,7.83,5.09,8.97,3.41.94,8.42-1.17,8.97-5.09.59-4.25,1.17-8.49,1.76-12.74.54-3.89-.94-7.83-5.09-8.97Z"/>
    <path class="cls-3" d="M566.15,597.02c-4.31,0-6.84,3.36-7.29,7.29-.42,3.66-1.23,7.26-2.22,10.81-2.51,9.05,11.55,12.92,14.06,3.88,1.34-4.83,2.17-9.71,2.74-14.69.45-3.92-3.67-7.29-7.29-7.29Z"/>
    <path class="cls-3" d="M582.07,605.63c-.15,3.28-.68,6.36-1.55,9.53-2.5,9.06,11.56,12.92,14.06,3.88,1.21-4.37,1.87-8.87,2.07-13.4.42-9.38-14.16-9.36-14.58,0Z"/>
    <path class="cls-3" d="M616.2,599.06c-3.5-.96-8.3,1.19-8.97,5.09-.65,3.8-1.29,7.59-1.93,11.39-.66,3.88,1.03,7.85,5.09,8.97,3.5.96,8.3-1.19,8.97-5.09.65-3.8,1.29-7.59,1.93-11.39.66-3.88-1.03-7.85-5.09-8.97Z"/>
    <path class="cls-3" d="M639.6,602.3c-4.27,0-6.89,3.36-7.29,7.29-.36,3.52-.72,7.04-1.08,10.57-.4,3.92,3.64,7.29,7.29,7.29,4.27,0,6.89-3.36,7.29-7.29.36-3.52.72-7.04,1.08-10.57.4-3.92-3.64-7.29-7.29-7.29Z"/>
    <path class="cls-3" d="M667.33,604.37c-3.52-.97-8.27,1.19-8.97,5.09-.81,4.55-1.4,9.12-1.74,13.73-.29,3.93,3.56,7.29,7.29,7.29,4.19,0,7-3.35,7.29-7.29.25-3.32.64-6.58,1.22-9.85.69-3.87-1.05-7.86-5.09-8.97Z"/>
    <path class="cls-3" d="M685.16,613.99c-.19,4.1-.39,8.2-.58,12.29-.44,9.38,14.14,9.36,14.58,0,.19-4.1.39-8.2.58-12.29.44-9.38-14.14-9.36-14.58,0Z"/>
    <path class="cls-3" d="M718.42,609.35c-4.36,0-6.77,3.37-7.29,7.29-.44,3.37-.88,6.73-1.33,10.1-.51,3.91,3.72,7.29,7.29,7.29,4.36,0,6.77-3.37,7.29-7.29.44-3.37.88-6.74,1.33-10.1.51-3.91-3.72-7.29-7.29-7.29Z"/>
    <path class="cls-3" d="M744.02,611.52c-4.19,0-6.99,3.35-7.29,7.29-.28,3.67-.56,7.35-.84,11.02-.3,3.93,3.56,7.29,7.29,7.29,4.19,0,6.99-3.35,7.29-7.29.28-3.67.56-7.35.84-11.02.3-3.93-3.56-7.29-7.29-7.29Z"/>
    <path class="cls-3" d="M769.77,613.29c-4.2,0-6.98,3.35-7.29,7.29-.27,3.37-.53,6.74-.8,10.11-.31,3.93,3.57,7.29,7.29,7.29,4.2,0,6.98-3.35,7.29-7.29.27-3.37.53-6.74.8-10.11.31-3.93-3.57-7.29-7.29-7.29Z"/>
    <path class="cls-3" d="M797.35,616.36c-4.29,0-6.87,3.36-7.29,7.29-.34,3.23-.69,6.46-1.03,9.69-.42,3.92,3.65,7.29,7.29,7.29,4.29,0,6.87-3.36,7.29-7.29.34-3.23.69-6.46,1.03-9.69.42-3.92-3.65-7.29-7.29-7.29Z"/>
  </g>
  <g>
    <path class="cls-3" d="M568.08,857.07l-17.29,10.77c-3.97,2.47-.32,8.78,3.68,6.29l17.29-10.77c3.97-2.47.32-8.78-3.68-6.29Z"/>
    <path class="cls-6" d="M204.14,1102.38c-.61,4.25,12.15,27.34,17.62,26.12,5.47-1.22,283.71-199.87,283.71-202.91s-21.87-29.16-23.69-29.16-277.63,205.95-277.63,205.95Z"/>
    <path class="cls-5" d="M481.78,896.44s41.67-24.79,43.22-24.4c1.55.39,17.78,22.91,17.78,24.4s-37.3,29.16-37.3,29.16l-23.69-29.16Z"/>
    <path class="cls-8" d="M524.99,872.03s29.39-10.92,30.23-10.29c.84.63,7.53,9.28,7.74,10.29.21,1.01-20.19,24.4-20.19,24.4l-17.78-24.4Z"/>
  </g>
  <path class="cls-3" d="M755.57,764.66c-14.31,8.98-31,11.34-46.76,4.21-.21-.09-.38-.22-.58-.31,6.75-17.86,9.11-47.88-11.63-51.94-24.32-4.76-19.45,29.04-10.56,43.05,3.41,5.38,8.14,9.34,13.12,12.52-3.94,6.59-8.79,12.4-13.02,16.04-7.63,6.57-18.18,9.89-28.14,8.91,5.55-14.24,7.62-30.08,4.23-41.96-5.57-19.51-26.35-18.66-34.55-1.65-8.85,18.36.49,40.54,18.87,48.23.27.11.53.18.8.29-1.54,3.12-3.25,6.11-5.17,8.83-7.63,10.87-20.22,16.97-31.46,12.85,1.33-3.03,2.55-6.13,3.58-9.34,2.85-8.92,8.28-26.04.13-34.15-16.51-16.42-25.92,19.08-23.71,30.14,1.47,7.38,5.2,13.06,10.15,16.91-3.57,6.83-7.78,12.94-12.91,19.01-3.01,3.56,2.12,8.74,5.15,5.15,5.43-6.42,10.09-13.26,14.01-20.52,8.66,3.57,19.25,2.8,28.46-3.12,7.68-4.93,14.35-13.55,19.31-23.56,19.94,3.71,38.32-9.02,48.89-26.24.47-.77.94-1.64,1.41-2.53,16.92,7.67,37.94,5.61,54.09-4.53,3.96-2.49.31-8.8-3.68-6.29ZM609.83,806.79c-1.14,4.36-3.68,9.71-5.44,13.33-1.24-.98-2.45-2.06-3.61-3.37-3.05-5.69-3.96-11.56-3.03-17.57.04-2.67.67-5.34,1.64-8.06.03-.09.1-.12.14-.2,1.53-4.43,4.52-8.47,9.44-6.17,7.89,3.69,3.37,15.35,1.41,21.1-.13.38-.35.66-.55.95ZM650.22,795.46c-4.16-1.52-8.03-3.94-11.28-7.46-5.7-6.19-8.31-16.01-6.86-24.46.25-3.12.99-6.48,2.45-9.38.04-.09.08-.16.13-.25,1.32-2.52,3.19-4.65,5.84-5.81,4.45-1.95,9.6-1.07,12.53,2.94,1.59,2.17,4.06,8.94,3.96,15.98-.3,21.06-4.85,26.35-6.77,28.44ZM702.49,767c-6.04-3.86-10.57-10.46-13.64-17.44-2.36-4.06-4.05-16.96-1.83-21.24,6.36-12.26,17.62-.14,19.27,11.06,1.12,7.61.07,19.16-3.79,27.62Z"/>
  <g>
    <g>
      <path class="cls-7" d="M859.03,720.07c-3.25,11.91,37.57,40.26,63.72,35.17l342.48,118.4,183.33-539.82-334.84-114.58s-30.56-28.01-61.11-16.55c0,0-186.8,492.54-193.58,517.38Z"/>
      <path class="cls-8" d="M1124.09,222.78l-10.37-3.55s-1.29-1.16-3.52-2.89c-40.15,109.77-80.31,219.54-120.46,329.3-20.71,56.62-41.42,113.24-62.13,169.86-4.9,13.39-9.8,26.79-14.7,40.18,3.42.25,6.73.15,9.84-.45l5.83,2.02c19.23-52.58,38.47-105.16,57.7-157.74,45.94-125.58,91.87-251.15,137.81-376.73Z"/>
    </g>
    <path class="cls-8" d="M1173.72,284.56c.09-.25.07-.47.11-.71,0-.08.03-.15.04-.23.27-2.52-2.1-4.25-4.25-3.99l-31.05-11.54c-1.17-.81-2.69-.99-3.89-.28-.07.04-.13.08-.2.12-.17.12-.35.23-.5.39-.91.77-1.46,1.92-1.44,3.08l-11.99,32.25c-.06.16-.03.29-.07.45-.06.26-.12.52-.12.79,0,.33.04.63.12.93.03.1.05.2.08.3.56,1.54,2.14,2.54,3.71,2.52l32.42,12.05c.16.06.3.03.45.07.26.06.52.12.78.12.33,0,.63-.04.93-.12.1-.03.2-.05.3-.08,1.54-.56,2.54-2.14,2.52-3.71l12.05-32.42ZM1138.65,275.88l26.82,9.97-9.91,26.65-26.82-9.97,9.91-26.65Z"/>
    <path class="cls-8" d="M1150.83,347.06c.09-.25.07-.47.11-.71,0-.08.03-.15.04-.23.27-2.52-2.1-4.25-4.24-3.99l-31.05-11.54c-1.17-.81-2.69-.99-3.89-.28-.07.04-.13.08-.2.12-.17.12-.35.23-.5.39-.91.77-1.46,1.92-1.44,3.08l-11.99,32.25c-.06.16-.03.29-.07.45-.06.26-.12.52-.12.79,0,.33.04.63.12.93.03.1.05.2.08.3.56,1.54,2.14,2.54,3.71,2.52l32.42,12.05c.16.06.3.03.45.07.26.06.52.12.78.12.33,0,.63-.04.93-.12.1-.03.2-.05.3-.08,1.54-.56,2.54-2.14,2.52-3.71l12.05-32.42ZM1115.76,338.38l26.82,9.97-9.91,26.65-26.82-9.97,9.91-26.65Z"/>
    <path class="cls-8" d="M1127.66,410.58c.09-.25.07-.47.11-.71,0-.08.03-.15.04-.23.27-2.52-2.1-4.25-4.24-3.99l-31.05-11.54c-1.17-.81-2.69-.99-3.89-.28-.07.04-.13.08-.2.12-.17.12-.35.23-.5.39-.91.77-1.46,1.92-1.44,3.08l-11.99,32.25c-.06.16-.03.29-.07.45-.06.26-.12.52-.12.79,0,.33.04.63.12.93.03.1.05.2.08.3.56,1.54,2.14,2.54,3.71,2.52l32.42,12.05c.16.06.3.03.45.07.26.06.52.12.78.12.33,0,.63-.04.93-.12.1-.03.2-.05.3-.08,1.54-.56,2.54-2.14,2.52-3.71l12.05-32.42ZM1092.59,401.9l26.82,9.97-9.91,26.65-26.82-9.97,9.91-26.65Z"/>
    <g>
      <path class="cls-3" d="M1343.78,353.26c-45.81-17.67-91.62-35.35-137.43-53.02-4.37-1.69-7.19,5.04-2.8,6.73,45.81,17.67,91.62,35.35,137.43,53.02,4.37,1.69,7.19-5.04,2.8-6.73Z"/>
      <path class="cls-3" d="M1286.57,356.24c-26.61-10.92-53.23-21.84-79.84-32.76-4.34-1.78-7.03,4.99-2.68,6.78,26.61,10.92,53.23,21.84,79.84,32.76,4.34,1.78,7.03-5,2.68-6.78Z"/>
      <path class="cls-3" d="M1291.22,417.63c-34.28-13.95-68.55-27.91-102.83-41.86-5.59-2.28-8.28,4.5-2.68,6.78,34.28,13.95,68.55,27.91,102.83,41.86,5.59,2.28,8.28-4.5,2.68-6.78Z"/>
    </g>
    <g>
      <path class="cls-3" d="M1300.18,483.92c-45.81-17.67-91.62-35.35-137.43-53.02-4.37-1.69-7.19,5.04-2.8,6.73,45.81,17.67,91.62,35.35,137.43,53.02,4.37,1.69,7.19-5.04,2.8-6.73Z"/>
      <path class="cls-3" d="M1317.12,517.4c-52.52-21.18-105.05-42.36-157.58-63.53-8.57-3.45-11.26,3.32-2.68,6.78,52.53,21.18,105.05,42.36,157.58,63.53,8.57,3.45,11.26-3.32,2.68-6.78Z"/>
    </g>
  </g>
  <path class="cls-3" d="M297.92,253.91c-77.95,40.01-155.68,80.88-225.18,134.7-3.7,2.87,1.49,7.99,5.15,5.15,68.97-53.41,146.36-93.87,223.7-133.56,4.17-2.14.49-8.43-3.68-6.29Z"/>
  <path class="cls-3" d="M133.63,395.84c-11.04,5.51-21.08,12.54-30.1,20.94-3.44,3.2,1.72,8.35,5.15,5.15,8.58-8,18.14-14.57,28.63-19.8,4.2-2.1.51-8.38-3.68-6.29Z"/>
  <path class="cls-3" d="M153.99,426.29c-10.28,6.35-20.56,12.71-30.84,19.06-3.98,2.46-.33,8.77,3.68,6.29,10.28-6.35,20.56-12.71,30.84-19.06,3.98-2.46.33-8.77-3.68-6.29Z"/>
  <path class="cls-3" d="M236.45,332.56c-22.53,15.44-45.52,30.14-68.98,44.13-4.02,2.4-.36,8.7,3.68,6.29,23.46-13.99,46.45-28.69,68.98-44.13,3.85-2.64.2-8.95-3.68-6.29Z"/>
  <path class="cls-3" d="M323.35,328.01c-47.09,27.32-94.17,54.64-141.26,81.96-4.05,2.35-.66,8.8,3.42,6.44,47.09-27.32,94.17-54.64,141.26-81.96,4.05-2.35.66-8.8-3.42-6.44Z"/>
  <path class="cls-8" d="M580.84,103.94c-45.61,23.84-89.56,50.46-131.82,79.84-4.14,2.88-.52,9.96,3.67,7.04,42.25-29.39,86.2-56.01,131.82-79.84,4.52-2.36.87-9.41-3.67-7.04Z"/>
  <path class="cls-8" d="M607.95,134.98c-47.06,26.64-92.97,55.16-137.72,85.52-4.17,2.83-.64,9.95,3.59,7.08,44.75-30.37,90.66-58.88,137.72-85.52,4.43-2.51.88-9.61-3.59-7.08Z"/>
  <path class="cls-8" d="M636.57,189.96c-45.61,23.84-89.56,50.46-131.82,79.84-4.14,2.88-.53,9.96,3.67,7.04,42.25-29.39,86.2-56.01,131.82-79.84,4.52-2.36.87-9.41-3.67-7.04Z"/>
  <path class="cls-8" d="M663.68,221.01c-47.06,26.64-92.97,55.16-137.72,85.52-4.17,2.83-.64,9.95,3.59,7.08,44.75-30.37,90.66-58.88,137.72-85.52,4.43-2.51.88-9.61-3.59-7.08Z"/>
  <g>
    <path class="cls-2" d="M926.4,960.21c-.4-.05-.76-.04-1.14-.04,1.53-10.06,2.36-20.23,2.29-30.41-.04-5.12.02-11.04-4.45-14.52-3.35-2.61-8.11-3.17-11.8-.86-7.17,4.48-7.5,18.68-7.43,25.98.09,9.46,2.69,18.43,6.77,26.88-.3,2.15.41,4.42,2.7,6.24,9.11,7.24,19.14,12.76,30.33,16.07,7.72,2.29,22.93,7.11,28.86-.93,13.57-18.39-36.88-27.21-46.12-28.42Z"/>
    <path class="cls-2" d="M1034.72,948.25c9.6-16.33-27.02-27.1-42.21-30.64.71-7.77,1.46-15.55,2.02-23.34.55-7.7-1.08-15.27-8.54-18.97-4.08-2.02-8.41-.05-10.62,3.62-4.99,8.28-5.91,18.09-5.08,27.56.56,6.34.97,15.16,5.82,19.22-.76,2.49-.19,5.25,2.62,7.35,8.94,6.65,18.12,13.3,28.71,17.06,7.4,2.63,22.18,6.79,27.28-1.87Z"/>
    <path class="cls-2" d="M1103.74,895.13c-3.04-9.19-14.71-10.79-23.02-13.14-8.99-2.54-18.13-4.31-27.38-5.51.74-9.83,1.51-20.02.31-29.74-.98-7.94-6.46-20.36-16.79-16.23-8.83,3.53-8,17.72-7.28,25.35.85,9,2.11,20.74,7.39,28.24-.07,2.13.7,4.16,2.37,5.49.49.48,1.04.94,1.7,1.33,14.2,8.33,46.09,28.02,61.1,11.87,1.87-2.01,2.44-5.08,1.59-7.65Z"/>
    <path class="cls-2" d="M1111.38,830.56c-1.05-12.14.39-25.08-1.87-37.01-1.43-7.52-8.46-20.08-17.8-13.89-7.23,4.79-7.16,19.26-6.76,26.91.57,10.79,3.62,21.37,6.68,31.66.44,1.48,1.17,2.59,2.08,3.41.42,1.07,1.13,2.11,2.27,3.02,9.69,7.72,20.5,13.44,32.54,16.53,8.18,2.1,26.77,6.48,32.78-1.78,13.98-19.23-37.73-28.05-49.92-28.85Z"/>
    <path class="cls-2" d="M1210.94,800.44c-1.96-10.78-12.94-12.86-22.27-14.61-9.21-1.73-18.56-2.55-27.92-2.63.51-10.71.22-21.44-1.22-32.07-1.02-7.54-4.24-17.66-14.02-16.44-10.01,1.26-10.54,12.04-10.25,19.93.41,11.2,2.04,22.27,4.42,33.22.45,2.07,1.51,3.41,2.84,4.18-.2,1.46.05,3.04.95,4.63,5.31,9.3,23.95,9.76,33.45,11.6,8.95,1.73,22.81,5.41,30.72-1.26,1.86-1.57,3.79-3.86,3.3-6.55Z"/>
    <path class="cls-3" d="M1184.24,747.26c-87.47,96.09-193.28,174.06-311.22,228.69-10.53,4.88-4.96,22.24,5.67,17.32,120.97-56.04,229.42-135.3,319.18-233.92,7.89-8.67-5.73-20.77-13.63-12.09Z"/>
  </g>
</svg>